<svg xmlns="http://www.w3.org/2000/svg" viewBox="-540.514 -83.116 500 500" xmlns:bx="https://boxy-svg.com">
  <g transform="matrix(1, 0, 0, 1, 1.313538, -45.286804)">
    <bx:title>tank</bx:title>
    <path style="stroke: rgb(0, 0, 0); stroke-width: 4px; fill: rgb(73, 176, 114);" d="M -506.34 167.053 C -506.34 167.053 -515.453 165.063 -526.322 173.716 C -537.191 182.369 -537.149 192.441 -537.149 192.441 L -535.604 424.193 C -535.604 424.193 -535.868 438.24 -527.101 446.959 C -518.334 455.678 -509.261 457.532 -509.261 457.532 L -397.761 457.532 C -397.761 457.532 -383.066 456.985 -374.012 447.322 C -364.958 437.659 -366.18 425.776 -366.18 425.776 L -220.134 425.776 C -220.134 425.776 -220.176 439.147 -212.923 447.541 C -205.67 455.935 -192.518 457.446 -192.518 457.446 L -83.105 457.446 C -83.105 457.446 -70.504 457.568 -63.102 448.278 C -55.7 438.988 -56.853 430.704 -56.853 430.704 L -56.853 151.179 L -111.098 151.179 L -111.098 164.986 L -188.14 164.986 C -188.14 164.986 -185.822 156.756 -193.718 145.51 C -201.614 134.264 -212.191 133.984 -212.191 133.984 L -368.99 133.984 C -368.99 133.984 -383.271 134.746 -393.106 143.275 C -402.941 151.804 -402.655 163.565 -402.655 163.565 L -444.761 163.899 L -444.761 152.657 L -506.751 152.657 L -506.34 167.053 Z"></path>
    <circle style="stroke: rgb(0, 0, 0); stroke-width: 4.10244px; fill: rgb(73, 176, 114);" transform="matrix(1.044239, 0, 0, 0.905821, -696.920715, -153.46582)" cx="212.336" cy="304.152" r="31.414"></circle>
    <rect x="-536.28" y="115.058" width="121.315" height="39.208" style="stroke: rgb(0, 0, 0); stroke-width: 4px; fill: rgb(73, 176, 114);"></rect>
    <rect x="-121.5" y="120.647" width="75.022" height="30.544" style="stroke: rgb(0, 0, 0); stroke-width: 4px; fill: rgb(73, 176, 114);"></rect>
    <path style="stroke: rgb(0, 0, 0); transform-box: fill-box; transform-origin: 50% 50%; stroke-width: 3.99999px; fill: rgb(73, 176, 114);" d="M -510.42 115.551 L -510.42 154.795" transform="matrix(1.000003, 0, 0, 1, 0.001424, 0)"></path>
    <path style="stroke: rgb(0, 0, 0); transform-box: fill-box; transform-origin: 50% 50%; stroke-width: 4px; fill: rgb(73, 176, 114);" d="M -440.37 115.75 L -440.37 154.993" transform="matrix(1.000001, 0, 0, 0.999999, 0.000237, 0)"></path>
    <path style="stroke: rgb(0, 0, 0); transform-box: fill-box; transform-origin: 50% 50%; stroke-width: 4px; fill: rgb(73, 176, 114);" d="M -107.44 120.292 L -107.44 151.744" transform="matrix(1, -0.000001, 0.000001, 1, 0, -0.000019)"></path>
    <path style="stroke: rgb(0, 0, 0); transform-box: fill-box; transform-origin: 50% 50%; stroke-width: 4px; fill: rgb(73, 176, 114);" d="M -61.42 120.264 L -61.42 150.98" transform="matrix(1, -0.000001, 0.000001, 1, -0.000009, 0.000019)"></path>
    <path style="stroke: rgb(0, 0, 0); transform-box: fill-box; transform-origin: 50% 50%; stroke-width: 4px; fill: rgb(73, 176, 114);" d="M -475.65 115.634 L -475.65 154.877" transform="matrix(0.999999, 0, 0, 1, -0.000475, 0)"></path>
    <path style="stroke: rgb(0, 0, 0); transform-box: fill-box; transform-origin: 50% 50%; stroke-width: 4px; fill: rgb(73, 176, 114);" d="M -86.269 121.156 L -86.269 151.504" transform="matrix(1, -0.000001, 0.000001, 1, -0.000019, -0.000019)"></path>
  </g>
  <path d="M -492.79 137.889 L -94.45 138.652 C -94.45 138.652 -87.668 138.891 -81.924 144.635 C -76.18 150.379 -76.866 157.066 -76.866 157.066 L -76.866 344.595 C -76.866 344.595 -74.218 352.406 -79.315 358.611 C -84.412 364.816 -91.134 364.913 -91.134 364.913 L -493.62 364.913 C -493.62 364.913 -500.67 365.647 -507.86 358.456 C -515.05 351.265 -512.21 344.028 -512.21 344.028 L -512.35 159.733 C -512.35 159.733 -512.24 152.417 -507.27 145.713 C -502.3 139.009 -492.79 137.889 -492.79 137.889 Z" style="stroke: rgb(0, 0, 0); fill: rgb(255, 255, 255);">
    <bx:title>inner</bx:title>
  </path>
  <path d="M -278.5 54.422 L -262.99 59.112 C -264.03 63.462 -265.67 67.092 -267.91 70.012 C -270.15 72.922 -272.93 75.132 -276.25 76.612 C -279.57 78.102 -283.8 78.842 -288.93 78.842 C -295.15 78.842 -300.24 77.932 -304.18 76.122 C -308.13 74.312 -311.53 71.132 -314.39 66.572 C -317.26 62.012 -318.69 56.182 -318.69 49.072 C -318.69 39.592 -316.17 32.312 -311.13 27.222 C -306.09 22.132 -298.97 19.582 -289.75 19.582 C -282.53 19.582 -276.86 21.042 -272.74 23.952 C -268.61 26.872 -265.54 31.352 -263.54 37.392 L -279.16 40.872 C -279.71 39.122 -280.28 37.852 -280.88 37.042 C -281.87 35.692 -283.08 34.642 -284.51 33.912 C -285.94 33.192 -287.55 32.822 -289.32 32.822 C -293.33 32.822 -296.4 34.442 -298.54 37.662 C -300.15 40.062 -300.96 43.822 -300.96 48.952 C -300.96 55.312 -299.99 59.662 -298.07 62.022 C -296.14 64.382 -293.43 65.562 -289.94 65.562 C -286.56 65.562 -284 64.602 -282.27 62.702 C -280.54 60.802 -279.28 58.042 -278.5 54.422 Z" style="text-wrap-mode: nowrap; fill: rgb(73, 176, 114);">
    <bx:title>C</bx:title>
  </path>
</svg>