<svg xmlns="http://www.w3.org/2000/svg" viewBox="0 -66.937 500 566.937" xmlns:bx="https://boxy-svg.com">
  <g transform="matrix(1, 0, 0, 1, 547.075134, -128.540421)">
    <bx:title>tank</bx:title>
    <path style="stroke: rgb(0, 0, 0); stroke-width: 4px; fill: rgb(234, 234, 234);" d="M -506.34 167.053 C -506.34 167.053 -515.453 165.063 -526.322 173.716 C -537.191 182.369 -537.149 192.441 -537.149 192.441 L -535.604 581.408 C -535.604 581.408 -535.868 595.455 -527.101 604.174 C -518.334 612.893 -509.261 614.747 -509.261 614.747 L -397.761 614.747 C -397.761 614.747 -383.066 614.2 -374.012 604.537 C -364.958 594.874 -366.18 582.991 -366.18 582.991 L -220.134 582.991 C -220.134 582.991 -220.176 596.362 -212.923 604.756 C -205.67 613.15 -192.518 614.661 -192.518 614.661 L -83.105 614.661 C -83.105 614.661 -70.504 614.783 -63.102 605.493 C -55.7 596.203 -56.853 587.919 -56.853 587.919 L -56.853 151.179 L -111.098 151.179 L -111.098 164.986 L -188.14 164.986 C -188.14 164.986 -185.822 156.756 -193.718 145.51 C -201.614 134.264 -212.191 133.984 -212.191 133.984 L -368.99 133.984 C -368.99 133.984 -383.271 134.746 -393.106 143.275 C -402.941 151.804 -402.655 163.565 -402.655 163.565 L -444.761 163.899 L -444.761 152.657 L -506.751 152.657 L -506.34 167.053 Z"></path>
    <circle style="stroke: rgb(0, 0, 0); stroke-width: 4.10244px; fill: rgb(234, 234, 234);" transform="matrix(1.044239, 0, 0, 0.905821, -696.920715, -153.46582)" cx="212.336" cy="304.152" r="31.414"></circle>
    <rect x="-536.28" y="115.058" width="121.315" height="39.208" style="stroke: rgb(0, 0, 0); stroke-width: 4px; fill: rgb(234, 234, 234);"></rect>
    <rect x="-121.5" y="120.647" width="75.022" height="30.544" style="stroke: rgb(0, 0, 0); stroke-width: 4px; fill: rgb(234, 234, 234);"></rect>
    <path style="stroke: rgb(0, 0, 0); transform-box: fill-box; transform-origin: 50% 50%; stroke-width: 3.99999px; fill: rgb(234, 234, 234);" d="M -510.42 115.551 L -510.42 154.795" transform="matrix(1.000003, 0, 0, 1, 0.001424, 0)"></path>
    <path style="stroke: rgb(0, 0, 0); transform-box: fill-box; transform-origin: 50% 50%; stroke-width: 4px; fill: rgb(234, 234, 234);" d="M -440.37 115.75 L -440.37 154.993" transform="matrix(1.000001, 0, 0, 0.999999, 0.000237, 0)"></path>
    <path style="stroke: rgb(0, 0, 0); transform-box: fill-box; transform-origin: 50% 50%; stroke-width: 4px; fill: rgb(234, 234, 234);" d="M -107.44 120.292 L -107.44 151.744" transform="matrix(1, -0.000001, 0.000001, 1, 0, -0.000019)"></path>
    <path style="stroke: rgb(0, 0, 0); transform-box: fill-box; transform-origin: 50% 50%; stroke-width: 4px; fill: rgb(234, 234, 234);" d="M -61.42 120.264 L -61.42 150.98" transform="matrix(1, -0.000001, 0.000001, 1, -0.000009, 0.000019)"></path>
    <path style="stroke: rgb(0, 0, 0); transform-box: fill-box; transform-origin: 50% 50%; stroke-width: 4px; fill: rgb(234, 234, 234);" d="M -475.65 115.634 L -475.65 154.877" transform="matrix(0.999999, 0, 0, 1, -0.000475, 0)"></path>
    <path style="stroke: rgb(0, 0, 0); transform-box: fill-box; transform-origin: 50% 50%; stroke-width: 4px; fill: rgb(234, 234, 234);" d="M -86.269 121.156 L -86.269 151.504" transform="matrix(1, -0.000001, 0.000001, 1, -0.000019, -0.000019)"></path>
  </g>
  <path d="M 52.975 54.636 L 451.311 55.399 C 451.311 55.399 458.093 55.638 463.837 61.382 C 469.581 67.126 468.895 73.813 468.895 73.813 L 468.895 414.046 C 468.895 414.046 471.543 421.857 466.446 428.062 C 461.349 434.267 454.627 434.364 454.627 434.364 L 52.145 434.364 C 52.145 434.364 45.095 435.098 37.905 427.907 C 30.715 420.716 33.555 413.479 33.555 413.479 L 33.415 76.48 C 33.415 76.48 33.525 69.164 38.495 62.46 C 43.465 55.756 52.975 54.636 52.975 54.636 Z" style="stroke: rgb(0, 0, 0); fill: rgb(255, 255, 255);">
    <bx:title>inner</bx:title>
  </path>
  <path d="M 236.885 -56.393 L 254.575 -56.393 L 254.575 -34.753 L 273.135 -56.393 L 296.645 -56.393 L 275.785 -34.793 L 297.585 0.876 L 275.785 0.876 L 263.715 -22.679 L 254.575 -13.108 L 254.575 0.876 L 236.885 0.876 L 236.885 -56.393 Z" style="text-wrap-mode: nowrap; fill: rgb(234, 234, 234);">
    <bx:title>K</bx:title>
  </path>
</svg>