<svg xmlns="http://www.w3.org/2000/svg" viewBox="-540.514 -83.116 500 500" xmlns:bx="https://boxy-svg.com">
  <path style="fill: rgba(255, 255, 255, 0.482);" d="M -520.191 -61.966 L -63.537 -59.832 L -84.773 -33.569 C -84.773 -33.569 -80.735 392.284 -80.735 392.511 C -80.735 392.738 -87.122 402.352 -87.122 402.352 L -104.644 408.526 L -478.059 406.48 L -496.642 399.079 L -503.195 382.337 L -504.179 -25.91 L -520.191 -61.966 Z"></path>
  <path style="stroke-width: 4px;" d="M -47.509 -74.092 L -60.724 -73.917 L -89.318 -35.21 L -89.696 375.261 C -89.696 375.261 -86.974 384.084 -93.587 392.606 C -99.33 400.008 -112.51 402.55 -112.51 402.55 L -477.09 401.133 C -477.09 401.133 -484.58 398.042 -489.5 393.549 C -497.27 386.442 -495.42 373.721 -495.42 373.721 L -497.19 -37.68 L -520.79 -75.513 L -534.09 -75.553 L -510.5 -34.782 L -509.05 378.906 C -509.05 378.906 -509.31 392.953 -500.55 401.672 C -491.78 410.391 -482.7 412.245 -482.7 412.245 L -102.33 411.871 C -102.33 411.871 -88.468 408.691 -81.066 399.401 C -73.664 390.111 -76.081 376.266 -76.081 376.266 L -76.081 -36.2 L -47.509 -74.092 Z"></path>
  <path d="M -489.96 264.409 L -96.582 264.409 L -96.582 386.814 L -99.4 391.876 L -105.03 394.287 L -480.94 394.287 L -486.52 391.79 L -489.96 386.814 L -489.96 264.409 Z" style="fill: rgba(255, 0, 0, 0.54);"></path>
  <rect x="-487.13" y="122.378" width="389.692" height="133.202" style="fill: rgba(255, 206, 29, 0.54);"></rect>
  <rect x="-487.25" y="-21.669" width="389.692" height="133.202" style="fill: rgba(192, 226, 60, 0.56);"></rect>
</svg>