<svg xmlns="http://www.w3.org/2000/svg" viewBox="-540.514 -83.116 500 500" xmlns:bx="https://boxy-svg.com">
  <g>
    <bx:title>tank</bx:title>
    <path style="stroke: rgb(0, 0, 0); stroke-width: 4px; fill: rgb(73, 176, 114);" d="M -506.34 167.053 C -506.34 167.053 -515.453 165.063 -526.322 173.716 C -537.191 182.369 -537.149 192.441 -537.149 192.441 L -535.604 377.662 C -535.604 377.662 -535.868 391.709 -527.101 400.428 C -518.334 409.147 -509.261 411.001 -509.261 411.001 L -397.761 411.001 C -397.761 411.001 -383.066 410.454 -374.012 400.791 C -364.958 391.128 -366.18 379.245 -366.18 379.245 L -220.134 379.245 C -220.134 379.245 -220.176 392.616 -212.923 401.01 C -205.67 409.404 -192.518 410.915 -192.518 410.915 L -83.105 410.915 C -83.105 410.915 -70.504 411.037 -63.102 401.747 C -55.7 392.457 -56.853 384.173 -56.853 384.173 L -56.853 151.179 L -111.098 151.179 L -111.098 164.986 L -188.14 164.986 C -188.14 164.986 -185.822 156.756 -193.718 145.51 C -201.614 134.264 -212.191 133.984 -212.191 133.984 L -368.99 133.984 C -368.99 133.984 -383.271 134.746 -393.106 143.275 C -402.941 151.804 -402.655 163.565 -402.655 163.565 L -444.761 163.899 L -444.761 152.657 L -506.751 152.657 L -506.34 167.053 Z"></path>
    <circle style="stroke: rgb(0, 0, 0); stroke-width: 4.10244px; fill: rgb(73, 176, 114);" transform="matrix(1.044239, 0, 0, 0.905821, -696.920715, -153.46582)" cx="212.336" cy="304.152" r="31.414"></circle>
    <rect x="-536.28" y="115.058" width="121.315" height="39.208" style="stroke: rgb(0, 0, 0); stroke-width: 4px; fill: rgb(73, 176, 114);"></rect>
    <rect x="-121.5" y="120.647" width="75.022" height="30.544" style="stroke: rgb(0, 0, 0); stroke-width: 4px; fill: rgb(73, 176, 114);"></rect>
    <path style="stroke: rgb(0, 0, 0); transform-box: fill-box; transform-origin: 50% 50%; stroke-width: 3.99999px; fill: rgb(73, 176, 114);" d="M -510.42 115.551 L -510.42 154.795" transform="matrix(1.000003, 0, 0, 1, 0.001424, 0)"></path>
    <path style="stroke: rgb(0, 0, 0); transform-box: fill-box; transform-origin: 50% 50%; stroke-width: 4px; fill: rgb(73, 176, 114);" d="M -440.37 115.75 L -440.37 154.993" transform="matrix(1.000001, 0, 0, 0.999999, 0.000237, 0)"></path>
    <path style="stroke: rgb(0, 0, 0); transform-box: fill-box; transform-origin: 50% 50%; stroke-width: 4px; fill: rgb(73, 176, 114);" d="M -107.44 120.292 L -107.44 151.744" transform="matrix(1, -0.000001, 0.000001, 1, 0, -0.000019)"></path>
    <path style="stroke: rgb(0, 0, 0); transform-box: fill-box; transform-origin: 50% 50%; stroke-width: 4px; fill: rgb(73, 176, 114);" d="M -61.42 120.264 L -61.42 150.98" transform="matrix(1, -0.000001, 0.000001, 1, -0.000009, 0.000019)"></path>
    <path style="stroke: rgb(0, 0, 0); transform-box: fill-box; transform-origin: 50% 50%; stroke-width: 4px; fill: rgb(73, 176, 114);" d="M -475.65 115.634 L -475.65 154.877" transform="matrix(0.999999, 0, 0, 1, -0.000475, 0)"></path>
    <path style="stroke: rgb(0, 0, 0); transform-box: fill-box; transform-origin: 50% 50%; stroke-width: 4px; fill: rgb(73, 176, 114);" d="M -86.269 121.156 L -86.269 151.504" transform="matrix(1, -0.000001, 0.000001, 1, -0.000019, -0.000019)"></path>
  </g>
  <path d="M -494.1 183.176 L -95.764 183.939 C -95.764 183.939 -88.982 184.178 -83.238 189.922 C -77.494 195.666 -78.18 202.353 -78.18 202.353 L -78.18 343.351 C -78.18 343.351 -75.532 351.162 -80.629 357.367 C -85.726 363.572 -92.448 363.669 -92.448 363.669 L -494.93 363.669 C -494.93 363.669 -501.98 364.403 -509.17 357.212 C -516.36 350.021 -513.52 342.784 -513.52 342.784 L -513.66 205.02 C -513.66 205.02 -513.55 197.704 -508.58 191 C -503.61 184.296 -494.1 183.176 -494.1 183.176 Z" style="stroke: rgb(0, 0, 0); fill: rgb(255, 255, 255);">
    <bx:title>inner</bx:title>
  </path>
  <path d="M -280.386 103.063 L -264.878 107.75 Q -266.44 114.273 -269.8 118.648 Q -273.159 123.023 -278.14 125.25 Q -283.12 127.477 -290.815 127.477 Q -300.151 127.477 -306.069 124.762 Q -311.987 122.047 -316.284 115.211 Q -320.581 108.375 -320.581 97.711 Q -320.581 83.492 -313.022 75.856 Q -305.464 68.219 -291.636 68.219 Q -280.815 68.219 -274.624 72.594 Q -268.433 76.969 -265.425 86.031 L -281.05 89.508 Q -281.87 86.891 -282.768 85.68 Q -284.253 83.648 -286.401 82.555 Q -288.55 81.461 -291.206 81.461 Q -297.222 81.461 -300.425 86.305 Q -302.847 89.898 -302.847 97.594 Q -302.847 107.125 -299.956 110.66 Q -297.065 114.195 -291.831 114.195 Q -286.753 114.195 -284.155 111.344 Q -281.558 108.492 -280.386 103.063 Z" style="text-wrap-mode: nowrap; fill: rgb(73, 176, 114);">
    <bx:title>C</bx:title>
  </path>
</svg>