<svg xmlns="http://www.w3.org/2000/svg" xmlns:xlink="http://www.w3.org/1999/xlink" width="172" height="215" viewBox="0 0 172 215">
  <defs>
    <clipPath id="clip-path">
      <rect width="79.285" height="19.042" fill="none"/>
    </clipPath>
  </defs>
  <g id="グループ_51" data-name="グループ 51" transform="translate(-159 -3506)">
    <g id="グループ_16" data-name="グループ 16" transform="translate(159 3506)">
      <path id="前面オブジェクトで型抜き_1" data-name="前面オブジェクトで型抜き 1" d="M160,198H5a5.006,5.006,0,0,1-5-5V0H131.256V13.087a3,3,0,0,0,3,3h5.351a3,3,0,0,0,3-3V0H165V193A5.006,5.006,0,0,1,160,198ZM78.531,16.087a3,3,0,0,0-3,3v8.85a3,3,0,0,0,3,3h35.148a3,3,0,0,0,3-3v-8.85a3,3,0,0,0-3-3Z" transform="translate(7 17)" fill="#f8cd47"/>
      <g id="長方形_6" data-name="長方形 6" fill="#fff" stroke="#707070" stroke-width="1">
        <rect width="84" height="20" stroke="none"/>
        <rect x="0.5" y="0.5" width="83" height="19" fill="none"/>
      </g>
      <g id="リピートグリッド_1" data-name="リピートグリッド 1" transform="translate(3.1 0)" clip-path="url(#clip-path)">
        <g transform="translate(-769.245 -727)">
          <path id="パス_1" data-name="パス 1" d="M780.745,692.389v19.042" transform="translate(-11 34.612)" fill="none" stroke="#707070" stroke-width="1"/>
        </g>
        <g transform="translate(-764.245 -727)">
          <path id="パス_1-2" data-name="パス 1" d="M780.745,692.389v19.042" transform="translate(-11 34.612)" fill="none" stroke="#707070" stroke-width="1"/>
        </g>
        <g transform="translate(-759.245 -727)">
          <path id="パス_1-3" data-name="パス 1" d="M780.745,692.389v19.042" transform="translate(-11 34.612)" fill="none" stroke="#707070" stroke-width="1"/>
        </g>
        <g transform="translate(-754.245 -727)">
          <path id="パス_1-4" data-name="パス 1" d="M780.745,692.389v19.042" transform="translate(-11 34.612)" fill="none" stroke="#707070" stroke-width="1"/>
        </g>
        <g transform="translate(-749.245 -727)">
          <path id="パス_1-5" data-name="パス 1" d="M780.745,692.389v19.042" transform="translate(-11 34.612)" fill="none" stroke="#707070" stroke-width="1"/>
        </g>
        <g transform="translate(-744.245 -727)">
          <path id="パス_1-6" data-name="パス 1" d="M780.745,692.389v19.042" transform="translate(-11 34.612)" fill="none" stroke="#707070" stroke-width="1"/>
        </g>
        <g transform="translate(-739.245 -727)">
          <path id="パス_1-7" data-name="パス 1" d="M780.745,692.389v19.042" transform="translate(-11 34.612)" fill="none" stroke="#707070" stroke-width="1"/>
        </g>
        <g transform="translate(-734.245 -727)">
          <path id="パス_1-8" data-name="パス 1" d="M780.745,692.389v19.042" transform="translate(-11 34.612)" fill="none" stroke="#707070" stroke-width="1"/>
        </g>
        <g transform="translate(-729.245 -727)">
          <path id="パス_1-9" data-name="パス 1" d="M780.745,692.389v19.042" transform="translate(-11 34.612)" fill="none" stroke="#707070" stroke-width="1"/>
        </g>
        <g transform="translate(-724.245 -727)">
          <path id="パス_1-10" data-name="パス 1" d="M780.745,692.389v19.042" transform="translate(-11 34.612)" fill="none" stroke="#707070" stroke-width="1"/>
        </g>
        <g transform="translate(-719.245 -727)">
          <path id="パス_1-11" data-name="パス 1" d="M780.745,692.389v19.042" transform="translate(-11 34.612)" fill="none" stroke="#707070" stroke-width="1"/>
        </g>
        <g transform="translate(-714.245 -727)">
          <path id="パス_1-12" data-name="パス 1" d="M780.745,692.389v19.042" transform="translate(-11 34.612)" fill="none" stroke="#707070" stroke-width="1"/>
        </g>
        <g transform="translate(-709.245 -727)">
          <path id="パス_1-13" data-name="パス 1" d="M780.745,692.389v19.042" transform="translate(-11 34.612)" fill="none" stroke="#707070" stroke-width="1"/>
        </g>
        <g transform="translate(-704.245 -727)">
          <path id="パス_1-14" data-name="パス 1" d="M780.745,692.389v19.042" transform="translate(-11 34.612)" fill="none" stroke="#707070" stroke-width="1"/>
        </g>
        <g transform="translate(-699.245 -727)">
          <path id="パス_1-15" data-name="パス 1" d="M780.745,692.389v19.042" transform="translate(-11 34.612)" fill="none" stroke="#707070" stroke-width="1"/>
        </g>
        <g transform="translate(-694.245 -727)">
          <path id="パス_1-16" data-name="パス 1" d="M780.745,692.389v19.042" transform="translate(-11 34.612)" fill="none" stroke="#707070" stroke-width="1"/>
        </g>
      </g>
      <rect id="長方形_7" data-name="長方形 7" width="150" height="135" transform="translate(14 72)" fill="rgba(255,255,255,0.83)"/>
    </g>
    <text id="A" transform="translate(196 3570)" font-size="20" font-family="HiraKakuProN-W3, Hiragino Kaku Gothic ProN"><tspan x="0" y="0">A</tspan></text>
  </g>
</svg>
