<svg xmlns="http://www.w3.org/2000/svg" xmlns:xlink="http://www.w3.org/1999/xlink" width="208.358" height="260.446" viewBox="0 0 208.358 260.446">
  <defs>
    <clipPath id="clip-path">
      <rect width="96.045" height="23.067" fill="none"/>
    </clipPath>
  </defs>
  <g id="グループ_48" data-name="グループ 48" transform="translate(-3046.427 -4461.302)">
    <g id="グループ_36" data-name="グループ 36" transform="translate(3046.427 4461.302)">
      <g id="前面オブジェクトで型抜き_1" data-name="前面オブジェクトで型抜き 1" transform="translate(8.48 20.594)" fill="#eaeaea">
        <path d="M 194.8778839111328 239.3527069091797 L 5.000383377075195 239.3527069091797 C 2.518853902816772 239.3527069091797 0.5000008940696716 237.3342590332031 0.5000008940696716 234.8532409667969 L 0.5000008940696716 109.9349975585938 L 0.5000008940696716 0.499116837978363 L 158.5012054443359 0.499116837978363 L 158.5012054443359 16.48799896240234 C 158.5012054443359 18.41773414611816 160.0715637207031 19.98770523071289 162.0018005371094 19.98770523071289 L 169.751708984375 19.98770523071289 C 171.6819458007812 19.98770523071289 173.2522888183594 18.41773414611816 173.2522888183594 16.48799896240234 L 173.2522888183594 0.499116837978363 L 199.3782958984375 0.499116837978363 L 199.3782958984375 209.8710021972656 L 199.3782958984375 234.8532409667969 C 199.3782958984375 237.3342590332031 197.3594055175781 239.3527069091797 194.8778839111328 239.3527069091797 Z M 94.49729156494141 18.98770523071289 C 92.56706237792969 18.98770523071289 90.9967041015625 20.55767631530762 90.9967041015625 22.48741149902344 L 90.9967041015625 34.47632217407227 C 90.9967041015625 36.40655899047852 92.56706237792969 37.97690963745117 94.49729156494141 37.97690963745117 L 138.3425903320312 37.97690963745117 C 140.2723236083984 37.97690963745117 141.8423004150391 36.40655899047852 141.8423004150391 34.47632217407227 L 141.8423004150391 22.48741149902344 C 141.8423004150391 20.55767631530762 140.2723236083984 18.98770523071289 138.3425903320312 18.98770523071289 L 94.49729156494141 18.98770523071289 Z" stroke="none"/>
        <path d="M 194.8778991699219 238.8527221679688 C 197.083740234375 238.8527221679688 198.8783111572266 237.0585632324219 198.8783111572266 234.8532257080078 L 198.8783111572266 0.9991297125816345 L 173.7523040771484 0.9991297125816345 L 173.7523040771484 16.48800468444824 C 173.7523040771484 18.69344139099121 171.9576416015625 20.48769187927246 169.751708984375 20.48769187927246 L 162.0018005371094 20.48769187927246 C 159.7958679199219 20.48769187927246 158.0012054443359 18.69344139099121 158.0012054443359 16.48800468444824 L 158.0012054443359 0.9991297125816345 L 1.000023007392883 0.9991297125816345 L 1.000023007392883 234.8532257080078 C 1.000023007392883 237.0585632324219 2.794585466384888 238.8527221679688 5.0003981590271 238.8527221679688 L 194.8778991699219 238.8527221679688 M 94.49730682373047 18.48769187927246 L 138.3425903320312 18.48769187927246 C 140.5480194091797 18.48769187927246 142.3423004150391 20.28197288513184 142.3423004150391 22.48741149902344 L 142.3423004150391 34.476318359375 C 142.3423004150391 36.68225479125977 140.5480194091797 38.47690963745117 138.3425903320312 38.47690963745117 L 94.49730682373047 38.47690963745117 C 92.29136657714844 38.47690963745117 90.49671173095703 36.68225479125977 90.49671173095703 34.476318359375 L 90.49671173095703 22.48741149902344 C 90.49671173095703 20.28197288513184 92.29136657714844 18.48769187927246 94.49730682373047 18.48769187927246 M 194.8778991699219 239.8527221679688 L 5.0003981590271 239.8527221679688 C 2.243179082870483 239.8527221679688 2.294921796419658e-05 237.6099395751953 2.294921796419658e-05 234.8532257080078 L 2.294921796419658e-05 -0.0008703002822585404 L 159.0012054443359 -0.0008703002822585404 L 159.0012054443359 16.48800468444824 C 159.0012054443359 18.14203643798828 160.3472747802734 19.48769187927246 162.0018005371094 19.48769187927246 L 169.751708984375 19.48769187927246 C 171.4062347412109 19.48769187927246 172.7523040771484 18.14203643798828 172.7523040771484 16.48800468444824 L 172.7523040771484 -0.0008703002822585404 L 199.8783111572266 -0.0008703002822585404 L 199.8783111572266 234.8532257080078 C 199.8783111572266 237.6099395751953 197.6351165771484 239.8527221679688 194.8778991699219 239.8527221679688 Z M 94.49730682373047 19.48769187927246 C 92.8427734375 19.48769187927246 91.49671173095703 20.8333797454834 91.49671173095703 22.48741149902344 L 91.49671173095703 34.476318359375 C 91.49671173095703 36.1308479309082 92.8427734375 37.47690963745117 94.49730682373047 37.47690963745117 L 138.3425903320312 37.47690963745117 C 139.9966125488281 37.47690963745117 141.3423004150391 36.1308479309082 141.3423004150391 34.476318359375 L 141.3423004150391 22.48741149902344 C 141.3423004150391 20.8333797454834 139.9966125488281 19.48769187927246 138.3425903320312 19.48769187927246 L 94.49730682373047 19.48769187927246 Z" stroke="none" fill="#7c7c7c"/>
      </g>
      <g id="長方形_6" data-name="長方形 6" transform="translate(0)" fill="#fff" stroke="#707070" stroke-width="1">
        <rect width="101.756" height="24.228" stroke="none"/>
        <rect x="0.5" y="0.5" width="100.756" height="23.228" fill="none"/>
      </g>
      <g id="リピートグリッド_1" data-name="リピートグリッド 1" transform="translate(4 0)" clip-path="url(#clip-path)">
        <g transform="translate(-769.245 -727)">
          <path id="パス_1" data-name="パス 1" d="M780.745,692.389v19.042" transform="translate(-11 34.612)" fill="none" stroke="#707070" stroke-width="1"/>
        </g>
        <g transform="translate(-764.245 -727)">
          <path id="パス_1-2" data-name="パス 1" d="M780.745,692.389v19.042" transform="translate(-11 34.612)" fill="none" stroke="#707070" stroke-width="1"/>
        </g>
        <g transform="translate(-759.245 -727)">
          <path id="パス_1-3" data-name="パス 1" d="M780.745,692.389v19.042" transform="translate(-11 34.612)" fill="none" stroke="#707070" stroke-width="1"/>
        </g>
        <g transform="translate(-754.245 -727)">
          <path id="パス_1-4" data-name="パス 1" d="M780.745,692.389v19.042" transform="translate(-11 34.612)" fill="none" stroke="#707070" stroke-width="1"/>
        </g>
        <g transform="translate(-749.245 -727)">
          <path id="パス_1-5" data-name="パス 1" d="M780.745,692.389v19.042" transform="translate(-11 34.612)" fill="none" stroke="#707070" stroke-width="1"/>
        </g>
        <g transform="translate(-744.245 -727)">
          <path id="パス_1-6" data-name="パス 1" d="M780.745,692.389v19.042" transform="translate(-11 34.612)" fill="none" stroke="#707070" stroke-width="1"/>
        </g>
        <g transform="translate(-739.245 -727)">
          <path id="パス_1-7" data-name="パス 1" d="M780.745,692.389v19.042" transform="translate(-11 34.612)" fill="none" stroke="#707070" stroke-width="1"/>
        </g>
        <g transform="translate(-734.245 -727)">
          <path id="パス_1-8" data-name="パス 1" d="M780.745,692.389v19.042" transform="translate(-11 34.612)" fill="none" stroke="#707070" stroke-width="1"/>
        </g>
        <g transform="translate(-729.245 -727)">
          <path id="パス_1-9" data-name="パス 1" d="M780.745,692.389v19.042" transform="translate(-11 34.612)" fill="none" stroke="#707070" stroke-width="1"/>
        </g>
        <g transform="translate(-724.245 -727)">
          <path id="パス_1-10" data-name="パス 1" d="M780.745,692.389v19.042" transform="translate(-11 34.612)" fill="none" stroke="#707070" stroke-width="1"/>
        </g>
        <g transform="translate(-719.245 -727)">
          <path id="パス_1-11" data-name="パス 1" d="M780.745,692.389v19.042" transform="translate(-11 34.612)" fill="none" stroke="#707070" stroke-width="1"/>
        </g>
        <g transform="translate(-714.245 -727)">
          <path id="パス_1-12" data-name="パス 1" d="M780.745,692.389v19.042" transform="translate(-11 34.612)" fill="none" stroke="#707070" stroke-width="1"/>
        </g>
        <g transform="translate(-709.245 -727)">
          <path id="パス_1-13" data-name="パス 1" d="M780.745,692.389v19.042" transform="translate(-11 34.612)" fill="none" stroke="#707070" stroke-width="1"/>
        </g>
        <g transform="translate(-704.245 -727)">
          <path id="パス_1-14" data-name="パス 1" d="M780.745,692.389v19.042" transform="translate(-11 34.612)" fill="none" stroke="#707070" stroke-width="1"/>
        </g>
        <g transform="translate(-699.245 -727)">
          <path id="パス_1-15" data-name="パス 1" d="M780.745,692.389v19.042" transform="translate(-11 34.612)" fill="none" stroke="#707070" stroke-width="1"/>
        </g>
        <g transform="translate(-694.245 -727)">
          <path id="パス_1-16" data-name="パス 1" d="M780.745,692.389v19.042" transform="translate(-11 34.612)" fill="none" stroke="#707070" stroke-width="1"/>
        </g>
        <g transform="translate(-689.245 -727)">
          <path id="パス_1-17" data-name="パス 1" d="M780.745,692.389v19.042" transform="translate(-11 34.612)" fill="none" stroke="#707070" stroke-width="1"/>
        </g>
        <g transform="translate(-684.245 -727)">
          <path id="パス_1-18" data-name="パス 1" d="M780.745,692.389v19.042" transform="translate(-11 34.612)" fill="none" stroke="#707070" stroke-width="1"/>
        </g>
        <g transform="translate(-679.245 -727)">
          <path id="パス_1-19" data-name="パス 1" d="M780.745,692.389v19.042" transform="translate(-11 34.612)" fill="none" stroke="#707070" stroke-width="1"/>
        </g>
        <g transform="translate(-674.245 -727)">
          <path id="パス_1-20" data-name="パス 1" d="M780.745,692.389v19.042" transform="translate(-11 34.612)" fill="none" stroke="#707070" stroke-width="1"/>
        </g>
      </g>
      <rect id="長方形_7" data-name="長方形 7" width="181.708" height="92.065" transform="translate(18.171 87.22)" fill="rgba(255,255,255,0.83)"/>
    </g>
    <text id="H" transform="translate(3092.459 4538.026)" font-size="24" font-family="HiraKakuProN-W3, Hiragino Kaku Gothic ProN"><tspan x="0" y="0">H</tspan></text>
  </g>
</svg>
