<svg xmlns="http://www.w3.org/2000/svg" xmlns:xlink="http://www.w3.org/1999/xlink" width="208.358" height="259.237" viewBox="0 0 208.358 259.237">
  <defs>
    <clipPath id="clip-path">
      <rect width="95.702" height="22.985" fill="none"/>
    </clipPath>
  </defs>
  <g id="グループ_47" data-name="グループ 47" transform="translate(-2777.5 -4462.514)">
    <g id="グループ_34" data-name="グループ 34" transform="translate(2777.5 4462.514)">
      <path id="前面オブジェクトで型抜き_1" data-name="前面オブジェクトで型抜き 1" d="M194.879,238.643H5a5.006,5.006,0,0,1-5-5V0H159V16.39a3,3,0,0,0,3,3h7.751a3,3,0,0,0,3-3V0h27.126V233.643A5.006,5.006,0,0,1,194.879,238.643ZM94.5,19.39a3,3,0,0,0-3,3v11.9a3,3,0,0,0,3,3h43.845a3,3,0,0,0,3-3V22.39a3,3,0,0,0-3-3Z" transform="translate(8.48 20.594)" fill="#ad744a"/>
      <g id="長方形_6" data-name="長方形 6" transform="translate(0 0)" fill="#fff" stroke="#707070" stroke-width="1">
        <rect width="100.545" height="24.228" stroke="none"/>
        <rect x="0.5" y="0.5" width="99.545" height="23.228" fill="none"/>
      </g>
      <g id="リピートグリッド_1" data-name="リピートグリッド 1" transform="translate(3.727 0.631)" clip-path="url(#clip-path)">
        <g transform="translate(-769.245 -727)">
          <path id="パス_1" data-name="パス 1" d="M780.745,692.389v27.427" transform="translate(-11 34.612)" fill="none" stroke="#707070" stroke-width="1"/>
        </g>
        <g transform="translate(-764.245 -727)">
          <path id="パス_1-2" data-name="パス 1" d="M780.745,692.389v27.427" transform="translate(-11 34.612)" fill="none" stroke="#707070" stroke-width="1"/>
        </g>
        <g transform="translate(-759.245 -727)">
          <path id="パス_1-3" data-name="パス 1" d="M780.745,692.389v27.427" transform="translate(-11 34.612)" fill="none" stroke="#707070" stroke-width="1"/>
        </g>
        <g transform="translate(-754.245 -727)">
          <path id="パス_1-4" data-name="パス 1" d="M780.745,692.389v27.427" transform="translate(-11 34.612)" fill="none" stroke="#707070" stroke-width="1"/>
        </g>
        <g transform="translate(-749.245 -727)">
          <path id="パス_1-5" data-name="パス 1" d="M780.745,692.389v27.427" transform="translate(-11 34.612)" fill="none" stroke="#707070" stroke-width="1"/>
        </g>
        <g transform="translate(-744.245 -727)">
          <path id="パス_1-6" data-name="パス 1" d="M780.745,692.389v27.427" transform="translate(-11 34.612)" fill="none" stroke="#707070" stroke-width="1"/>
        </g>
        <g transform="translate(-739.245 -727)">
          <path id="パス_1-7" data-name="パス 1" d="M780.745,692.389v27.427" transform="translate(-11 34.612)" fill="none" stroke="#707070" stroke-width="1"/>
        </g>
        <g transform="translate(-734.245 -727)">
          <path id="パス_1-8" data-name="パス 1" d="M780.745,692.389v27.427" transform="translate(-11 34.612)" fill="none" stroke="#707070" stroke-width="1"/>
        </g>
        <g transform="translate(-729.245 -727)">
          <path id="パス_1-9" data-name="パス 1" d="M780.745,692.389v27.427" transform="translate(-11 34.612)" fill="none" stroke="#707070" stroke-width="1"/>
        </g>
        <g transform="translate(-724.245 -727)">
          <path id="パス_1-10" data-name="パス 1" d="M780.745,692.389v27.427" transform="translate(-11 34.612)" fill="none" stroke="#707070" stroke-width="1"/>
        </g>
        <g transform="translate(-719.245 -727)">
          <path id="パス_1-11" data-name="パス 1" d="M780.745,692.389v27.427" transform="translate(-11 34.612)" fill="none" stroke="#707070" stroke-width="1"/>
        </g>
        <g transform="translate(-714.245 -727)">
          <path id="パス_1-12" data-name="パス 1" d="M780.745,692.389v27.427" transform="translate(-11 34.612)" fill="none" stroke="#707070" stroke-width="1"/>
        </g>
        <g transform="translate(-709.245 -727)">
          <path id="パス_1-13" data-name="パス 1" d="M780.745,692.389v27.427" transform="translate(-11 34.612)" fill="none" stroke="#707070" stroke-width="1"/>
        </g>
        <g transform="translate(-704.245 -727)">
          <path id="パス_1-14" data-name="パス 1" d="M780.745,692.389v27.427" transform="translate(-11 34.612)" fill="none" stroke="#707070" stroke-width="1"/>
        </g>
        <g transform="translate(-699.245 -727)">
          <path id="パス_1-15" data-name="パス 1" d="M780.745,692.389v27.427" transform="translate(-11 34.612)" fill="none" stroke="#707070" stroke-width="1"/>
        </g>
        <g transform="translate(-694.245 -727)">
          <path id="パス_1-16" data-name="パス 1" d="M780.745,692.389v27.427" transform="translate(-11 34.612)" fill="none" stroke="#707070" stroke-width="1"/>
        </g>
        <g transform="translate(-689.245 -727)">
          <path id="パス_1-17" data-name="パス 1" d="M780.745,692.389v27.427" transform="translate(-11 34.612)" fill="none" stroke="#707070" stroke-width="1"/>
        </g>
        <g transform="translate(-684.245 -727)">
          <path id="パス_1-18" data-name="パス 1" d="M780.745,692.389v27.427" transform="translate(-11 34.612)" fill="none" stroke="#707070" stroke-width="1"/>
        </g>
        <g transform="translate(-679.245 -727)">
          <path id="パス_1-19" data-name="パス 1" d="M780.745,692.389v27.427" transform="translate(-11 34.612)" fill="none" stroke="#707070" stroke-width="1"/>
        </g>
        <g transform="translate(-674.245 -727)">
          <path id="パス_1-20" data-name="パス 1" d="M780.745,692.389v27.427" transform="translate(-11 34.612)" fill="none" stroke="#707070" stroke-width="1"/>
        </g>
      </g>
      <rect id="長方形_7" data-name="長方形 7" width="181.708" height="162.325" transform="translate(16.959 87.22)" fill="rgba(255,255,255,0.83)"/>
    </g>
    <text id="J" transform="translate(2821.109 4538.026)" font-size="24" font-family="HiraKakuProN-W3, Hiragino Kaku Gothic ProN"><tspan x="0" y="0">J</tspan></text>
  </g>
</svg>
