<svg xmlns="http://www.w3.org/2000/svg" xmlns:xlink="http://www.w3.org/1999/xlink" width="208.358" height="305.268" viewBox="0 0 208.358 305.268">
  <defs>
    <clipPath id="clip-path">
      <rect width="96.045" height="23.067" fill="none"/>
    </clipPath>
  </defs>
  <g id="グループ_46" data-name="グループ 46" transform="translate(-2515.841 -4416.481)">
    <g id="グループ_33" data-name="グループ 33" transform="translate(2515.841 4416.481)">
      <g id="前面オブジェクトで型抜き_1" data-name="前面オブジェクトで型抜き 1" transform="translate(8.48 20.594)" fill="#eaeaea">
        <path d="M 194.8778991699219 284.1736145019531 L 5.000405788421631 284.1736145019531 C 2.518869876861572 284.1736145019531 0.5000126957893372 282.1551513671875 0.5000126957893372 279.6741027832031 L 0.5000126957893372 129.5442199707031 L 0.5000126957893372 0.4991147518157959 L 158.5011901855469 0.4991147518157959 L 158.5011901855469 16.48800849914551 C 158.5011901855469 18.41775703430176 160.0715484619141 19.98772239685059 162.0018005371094 19.98772239685059 L 169.7517242431641 19.98772239685059 C 171.6819458007812 19.98772239685059 173.2523040771484 18.41775703430176 173.2523040771484 16.48800849914551 L 173.2523040771484 0.4991147518157959 L 199.3782958984375 0.4991147518157959 L 199.3782958984375 249.0894012451172 L 199.3782958984375 279.6741027832031 C 199.3782958984375 282.1551513671875 197.3594360351562 284.1736145019531 194.8778991699219 284.1736145019531 Z M 94.49729919433594 18.98772239685059 C 92.56704711914062 18.98772239685059 90.99668884277344 20.55768585205078 90.99668884277344 22.48740005493164 L 90.99668884277344 34.47629165649414 C 90.99668884277344 36.40654373168945 92.56704711914062 37.97690200805664 94.49729919433594 37.97690200805664 L 138.3426208496094 37.97690200805664 C 140.2723388671875 37.97690200805664 141.8423004150391 36.40654373168945 141.8423004150391 34.47629165649414 L 141.8423004150391 22.48740005493164 C 141.8423004150391 20.55768585205078 140.2723388671875 18.98772239685059 138.3426208496094 18.98772239685059 L 94.49729919433594 18.98772239685059 Z" stroke="none"/>
        <path d="M 194.8778991699219 283.6736145019531 C 197.0837249755859 283.6736145019531 198.8782958984375 281.8794250488281 198.8782958984375 279.6741027832031 L 198.8782958984375 0.9991147518157959 L 173.7523040771484 0.9991147518157959 L 173.7523040771484 16.48800849914551 C 173.7523040771484 18.69347190856934 171.9576568603516 20.48772239685059 169.7517242431641 20.48772239685059 L 162.0018005371094 20.48772239685059 C 159.7958679199219 20.48772239685059 158.0011901855469 18.69347190856934 158.0011901855469 16.48800849914551 L 158.0011901855469 0.9991147518157959 L 1.000012755393982 0.9991147518157959 L 1.000012755393982 279.6741027832031 C 1.000012755393982 281.8794250488281 2.794584035873413 283.6736145019531 5.000405788421631 283.6736145019531 L 194.8778991699219 283.6736145019531 M 94.49729919433594 18.48772239685059 L 138.3426208496094 18.48772239685059 C 140.5480499267578 18.48772239685059 142.3423004150391 20.2819709777832 142.3423004150391 22.48740005493164 L 142.3423004150391 34.47629165649414 C 142.3423004150391 36.68222045898438 140.5480499267578 38.47690200805664 138.3426208496094 38.47690200805664 L 94.49729919433594 38.47690200805664 C 92.29136657714844 38.47690200805664 90.49668884277344 36.68222045898438 90.49668884277344 34.47629165649414 L 90.49668884277344 22.48740005493164 C 90.49668884277344 20.2819709777832 92.29136657714844 18.48772239685059 94.49729919433594 18.48772239685059 M 194.8778991699219 284.6736145019531 L 5.000405788421631 284.6736145019531 C 2.243191242218018 284.6736145019531 1.272147073905217e-05 282.4308776855469 1.272147073905217e-05 279.6741027832031 L 1.272147073905217e-05 -0.0008852538885548711 L 159.0011901855469 -0.0008852538885548711 L 159.0011901855469 16.48800849914551 C 159.0011901855469 18.14204406738281 160.3472595214844 19.48772239685059 162.0018005371094 19.48772239685059 L 169.7517242431641 19.48772239685059 C 171.4062652587891 19.48772239685059 172.7523040771484 18.14204406738281 172.7523040771484 16.48800849914551 L 172.7523040771484 -0.0008852538885548711 L 199.8782958984375 -0.0008852538885548711 L 199.8782958984375 279.6741027832031 C 199.8782958984375 282.4308776855469 197.6351165771484 284.6736145019531 194.8778991699219 284.6736145019531 Z M 94.49729919433594 19.48772239685059 C 92.84276580810547 19.48772239685059 91.49668884277344 20.83336448669434 91.49668884277344 22.48740005493164 L 91.49668884277344 34.47629165649414 C 91.49668884277344 36.13082885742188 92.84276580810547 37.47690200805664 94.49729919433594 37.47690200805664 L 138.3426208496094 37.47690200805664 C 139.9966583251953 37.47690200805664 141.3423004150391 36.13082885742188 141.3423004150391 34.47629165649414 L 141.3423004150391 22.48740005493164 C 141.3423004150391 20.83336448669434 139.9966583251953 19.48772239685059 138.3426208496094 19.48772239685059 L 94.49729919433594 19.48772239685059 Z" stroke="none" fill="#7c7c7c"/>
      </g>
      <g id="長方形_6" data-name="長方形 6" transform="translate(0)" fill="#fff" stroke="#707070" stroke-width="1">
        <rect width="101.756" height="24.228" stroke="none"/>
        <rect x="0.5" y="0.5" width="100.756" height="23.228" fill="none"/>
      </g>
      <g id="リピートグリッド_1" data-name="リピートグリッド 1" transform="translate(3.873 0)" clip-path="url(#clip-path)">
        <g transform="translate(-769.245 -727)">
          <path id="パス_1" data-name="パス 1" d="M780.745,692.389v19.042" transform="translate(-11 34.612)" fill="none" stroke="#707070" stroke-width="1"/>
        </g>
        <g transform="translate(-764.245 -727)">
          <path id="パス_1-2" data-name="パス 1" d="M780.745,692.389v19.042" transform="translate(-11 34.612)" fill="none" stroke="#707070" stroke-width="1"/>
        </g>
        <g transform="translate(-759.245 -727)">
          <path id="パス_1-3" data-name="パス 1" d="M780.745,692.389v19.042" transform="translate(-11 34.612)" fill="none" stroke="#707070" stroke-width="1"/>
        </g>
        <g transform="translate(-754.245 -727)">
          <path id="パス_1-4" data-name="パス 1" d="M780.745,692.389v19.042" transform="translate(-11 34.612)" fill="none" stroke="#707070" stroke-width="1"/>
        </g>
        <g transform="translate(-749.245 -727)">
          <path id="パス_1-5" data-name="パス 1" d="M780.745,692.389v19.042" transform="translate(-11 34.612)" fill="none" stroke="#707070" stroke-width="1"/>
        </g>
        <g transform="translate(-744.245 -727)">
          <path id="パス_1-6" data-name="パス 1" d="M780.745,692.389v19.042" transform="translate(-11 34.612)" fill="none" stroke="#707070" stroke-width="1"/>
        </g>
        <g transform="translate(-739.245 -727)">
          <path id="パス_1-7" data-name="パス 1" d="M780.745,692.389v19.042" transform="translate(-11 34.612)" fill="none" stroke="#707070" stroke-width="1"/>
        </g>
        <g transform="translate(-734.245 -727)">
          <path id="パス_1-8" data-name="パス 1" d="M780.745,692.389v19.042" transform="translate(-11 34.612)" fill="none" stroke="#707070" stroke-width="1"/>
        </g>
        <g transform="translate(-729.245 -727)">
          <path id="パス_1-9" data-name="パス 1" d="M780.745,692.389v19.042" transform="translate(-11 34.612)" fill="none" stroke="#707070" stroke-width="1"/>
        </g>
        <g transform="translate(-724.245 -727)">
          <path id="パス_1-10" data-name="パス 1" d="M780.745,692.389v19.042" transform="translate(-11 34.612)" fill="none" stroke="#707070" stroke-width="1"/>
        </g>
        <g transform="translate(-719.245 -727)">
          <path id="パス_1-11" data-name="パス 1" d="M780.745,692.389v19.042" transform="translate(-11 34.612)" fill="none" stroke="#707070" stroke-width="1"/>
        </g>
        <g transform="translate(-714.245 -727)">
          <path id="パス_1-12" data-name="パス 1" d="M780.745,692.389v19.042" transform="translate(-11 34.612)" fill="none" stroke="#707070" stroke-width="1"/>
        </g>
        <g transform="translate(-709.245 -727)">
          <path id="パス_1-13" data-name="パス 1" d="M780.745,692.389v19.042" transform="translate(-11 34.612)" fill="none" stroke="#707070" stroke-width="1"/>
        </g>
        <g transform="translate(-704.245 -727)">
          <path id="パス_1-14" data-name="パス 1" d="M780.745,692.389v19.042" transform="translate(-11 34.612)" fill="none" stroke="#707070" stroke-width="1"/>
        </g>
        <g transform="translate(-699.245 -727)">
          <path id="パス_1-15" data-name="パス 1" d="M780.745,692.389v19.042" transform="translate(-11 34.612)" fill="none" stroke="#707070" stroke-width="1"/>
        </g>
        <g transform="translate(-694.245 -727)">
          <path id="パス_1-16" data-name="パス 1" d="M780.745,692.389v19.042" transform="translate(-11 34.612)" fill="none" stroke="#707070" stroke-width="1"/>
        </g>
        <g transform="translate(-689.245 -727)">
          <path id="パス_1-17" data-name="パス 1" d="M780.745,692.389v19.042" transform="translate(-11 34.612)" fill="none" stroke="#707070" stroke-width="1"/>
        </g>
        <g transform="translate(-684.245 -727)">
          <path id="パス_1-18" data-name="パス 1" d="M780.745,692.389v19.042" transform="translate(-11 34.612)" fill="none" stroke="#707070" stroke-width="1"/>
        </g>
        <g transform="translate(-679.245 -727)">
          <path id="パス_1-19" data-name="パス 1" d="M780.745,692.389v19.042" transform="translate(-11 34.612)" fill="none" stroke="#707070" stroke-width="1"/>
        </g>
        <g transform="translate(-674.245 -727)">
          <path id="パス_1-20" data-name="パス 1" d="M780.745,692.389v19.042" transform="translate(-11 34.612)" fill="none" stroke="#707070" stroke-width="1"/>
        </g>
      </g>
      <rect id="長方形_7" data-name="長方形 7" width="181.708" height="202.301" transform="translate(16.959 87.22)" fill="rgba(255,255,255,0.83)"/>
    </g>
    <text id="K" transform="translate(2557.028 4492.205)" font-size="23" font-family="HiraKakuProN-W3, Hiragino Kaku Gothic ProN"><tspan x="0" y="0">K</tspan></text>
  </g>
</svg>
