<svg fill="#000000" width="800px" height="800px" viewBox="0 0 512 512" id="Layer_1" version="1.1" xmlns="http://www.w3.org/2000/svg" xmlns:xlink="http://www.w3.org/1999/xlink">
  <circle style="fill: rgb(222, 176, 255);" cx="255.563" cy="256.361" r="253.685"></circle>
  <g style="" transform="matrix(0.795873, 0, 0, 0.795873, 47.205658, 42.122475)">
    <g>
      <path d="M398.4,468.9H113.6c-15.4,0-29.7-7.6-38.3-20.4s-10.3-28.9-4.5-43.2l100.8-248.7c3.7-9.2,5.6-19,5.6-29V97.8h-11.1    c-15.1,0-27.3-12.3-27.3-27.3c0-15.1,12.3-27.3,27.3-27.3h179.8c15.1,0,27.3,12.3,27.3,27.3c0,15.1-12.3,27.3-27.3,27.3h-11.1    v29.8c0,10,1.9,19.7,5.6,29l100.8,248.8c5.8,14.3,4.1,30.4-4.5,43.2C428.2,461.3,413.8,468.9,398.4,468.9z M166.1,58.1    c-6.8,0-12.3,5.5-12.3,12.3s5.5,12.3,12.3,12.3h18.6c4.1,0,7.5,3.4,7.5,7.5v37.4c0,11.9-2.3,23.6-6.7,34.6L84.6,411    c-4,9.8-2.9,20.4,3,29.2s15.3,13.8,25.9,13.8h284.9c10.6,0,20-5,25.9-13.8s7-19.4,3-29.2L326.5,162.2c-4.5-11-6.7-22.7-6.7-34.6    V90.3c0-4.1,3.4-7.5,7.5-7.5h18.6c6.8,0,12.3-5.5,12.3-12.3s-5.5-12.3-12.3-12.3L166.1,58.1L166.1,58.1z" style="fill: rgb(253, 252, 252);"></path>
    </g>
    <g>
      <path d="M377.1,281.6h-49.4c-4.1,0-7.5-3.4-7.5-7.5s3.4-7.5,7.5-7.5h49.4c4.1,0,7.5,3.4,7.5,7.5S381.2,281.6,377.1,281.6z" style="fill: rgb(253, 252, 252);"></path>
    </g>
    <g>
      <path d="M287,281.6H132c-4.1,0-7.5-3.4-7.5-7.5s3.4-7.5,7.5-7.5h155c4.1,0,7.5,3.4,7.5,7.5S291.1,281.6,287,281.6z" style="fill: rgb(253, 252, 252);"></path>
    </g>
  </g>
</svg>